<svg width="45" height="45" viewBox="0 0 45 45" fill="none" xmlns="http://www.w3.org/2000/svg">
<circle id="Background" cx="22.5" cy="22.5" r="22.25" fill="#57EF97" stroke="black" stroke-width="0.5"/>
<g id="main-face">
<path id="face" d="M8.75 19C8.75 11.4061 14.9061 5.25 22.5 5.25C30.0939 5.25 36.25 11.4061 36.25 19V30C36.25 37.0416 30.5416 42.75 23.5 42.75H21.5C14.4584 42.75 8.75 37.0416 8.75 30V19Z" fill="#FFCB46" stroke="black" stroke-width="0.5"/>
<circle id="left-specs-frame" cx="16.5" cy="23" r="4.6" fill="#FFCB46" stroke="black" stroke-width="0.8"/>
<circle id="right-specs-frame" cx="28.5" cy="23" r="4.6" fill="#FFCB46" stroke="black" stroke-width="0.8"/>
<path id="mid-specs-frame" d="M21 21H24" stroke="black" stroke-width="0.8" stroke-linecap="round"/>
<path id="ex-right-specs-frame" d="M32.4 20H36.4" stroke="black" stroke-width="0.8" stroke-linecap="round"/>
<path id="ex-left-specs-frame" d="M8.5 20H12.5" stroke="black" stroke-width="0.8" stroke-linecap="round"/>
<rect id="left-eye" x="16.5" y="21" width="3" height="5" rx="1.5" fill="black"/>
<rect id="right-eye" x="25.5" y="21" width="3" height="5" rx="1.5" fill="black"/>
<path id="left-eyebrow" d="M18.9995 17.9553C18.175 17.2778 15.9207 16.3149 13.5 17.8834" stroke="black" stroke-width="0.8" stroke-linecap="round"/>
<path id="right-eyebrow" d="M30.9995 17.9553C30.175 17.2778 27.9207 16.3149 25.5 17.8834" stroke="black" stroke-width="0.8" stroke-linecap="round"/>
<g id="smile">
<mask id="path-12-inside-1_0_1" fill="white">
<path d="M27 32.5C27 33.9587 26.5259 35.3576 25.682 36.3891C24.8381 37.4205 23.6935 38 22.5 38C21.3065 38 20.1619 37.4205 19.318 36.3891C18.4741 35.3576 18 33.9587 18 32.5L22.5 32.5H27Z"/>
</mask>
<path d="M27 32.5C27 33.9587 26.5259 35.3576 25.682 36.3891C24.8381 37.4205 23.6935 38 22.5 38C21.3065 38 20.1619 37.4205 19.318 36.3891C18.4741 35.3576 18 33.9587 18 32.5L22.5 32.5H27Z" fill="white" stroke="black" mask="url(#path-12-inside-1_0_1)"/>
</g>
<path id="nose" d="M20.2273 30.5L22.5 21.9709L24.7727 30.5H20.2273Z" fill="#FF81CC" stroke="black" stroke-width="0.5"/>
<path id="hair" d="M7.5 12C7.5 6.47715 11.9772 2 17.5 2H32.5C33.0523 2 33.5 2.44772 33.5 3V5C33.5 10.5228 29.0228 15 23.5 15H8.5C7.94772 15 7.5 14.5523 7.5 14V12Z" fill="black"/>
<path id="side-hair" d="M29.5 5H32.5C35.8137 5 38.5 7.68629 38.5 11V18C33.5294 18 29.5 13.9706 29.5 9V5Z" fill="black"/>
<g id="right-ear">
<mask id="path-16-inside-2_0_1" fill="white">
<path d="M36.0695 29.7424C36.4672 29.7448 36.8617 29.6343 37.2305 29.4172C37.5993 29.2002 37.9351 28.8808 38.2187 28.4774C38.5024 28.074 38.7283 27.5945 38.8837 27.0661C39.039 26.5378 39.1207 25.971 39.1241 25.3982C39.1275 24.8253 39.0525 24.2576 38.9035 23.7274C38.7544 23.1973 38.5342 22.7151 38.2553 22.3083C37.9765 21.9016 37.6445 21.5783 37.2783 21.3569C36.9121 21.1355 36.519 21.0203 36.1212 21.018L36.0953 25.3802L36.0695 29.7424Z"/>
</mask>
<path d="M36.0695 29.7424C36.4672 29.7448 36.8617 29.6343 37.2305 29.4172C37.5993 29.2002 37.9351 28.8808 38.2187 28.4774C38.5024 28.074 38.7283 27.5945 38.8837 27.0661C39.039 26.5378 39.1207 25.971 39.1241 25.3982C39.1275 24.8253 39.0525 24.2576 38.9035 23.7274C38.7544 23.1973 38.5342 22.7151 38.2553 22.3083C37.9765 21.9016 37.6445 21.5783 37.2783 21.3569C36.9121 21.1355 36.519 21.0203 36.1212 21.018L36.0953 25.3802L36.0695 29.7424Z" fill="#FFCB46" stroke="black" mask="url(#path-16-inside-2_0_1)"/>
</g>
<g id="left-ear">
<mask id="path-17-inside-3_0_1" fill="white">
<path d="M9.02883 21.0179C8.63108 21.0179 8.23722 21.1307 7.86975 21.35C7.50227 21.5692 7.16838 21.8905 6.88712 22.2956C6.60587 22.7007 6.38277 23.1816 6.23056 23.7108C6.07834 24.2401 6 24.8073 6 25.3802C6 25.9531 6.07834 26.5203 6.23056 27.0496C6.38277 27.5788 6.60587 28.0597 6.88712 28.4648C7.16838 28.8699 7.50227 29.1912 7.86975 29.4104C8.23722 29.6296 8.63108 29.7425 9.02883 29.7425L9.02883 25.3802V21.0179Z"/>
</mask>
<path d="M9.02883 21.0179C8.63108 21.0179 8.23722 21.1307 7.86975 21.35C7.50227 21.5692 7.16838 21.8905 6.88712 22.2956C6.60587 22.7007 6.38277 23.1816 6.23056 23.7108C6.07834 24.2401 6 24.8073 6 25.3802C6 25.9531 6.07834 26.5203 6.23056 27.0496C6.38277 27.5788 6.60587 28.0597 6.88712 28.4648C7.16838 28.8699 7.50227 29.1912 7.86975 29.4104C8.23722 29.6296 8.63108 29.7425 9.02883 29.7425L9.02883 25.3802V21.0179Z" fill="#FFCB46" stroke="black" mask="url(#path-17-inside-3_0_1)"/>
</g>
</g>
</svg>